<svg xmlns="http://www.w3.org/2000/svg" xmlns:xlink="http://www.w3.org/1999/xlink" version="1.1" id="Layer_1" x="0px" y="0px" width="110.36px" height="20.225px" viewBox="0 0 110.36 20.225" enable-background="new 0 0 110.36 20.225" xml:space="preserve"><style>.style0{fill:	#FFFFFF;}</style><g><path d="M23.394 10.25c0 0.798-0.144 1.543-0.431 2.236c-0.287 0.693-0.693 1.295-1.218 1.8 c-0.525 0.511-1.148 0.917-1.869 1.218c-0.721 0.301-1.509 0.451-2.362 0.451c-1.092 0-2.076-0.241-2.951-0.725 c-0.875-0.483-1.564-1.124-2.068-1.921c-0.196 0.294-0.445 0.592-0.746 0.893c-0.301 0.301-0.662 0.578-1.082 0.8 s-0.907 0.458-1.459 0.62c-0.553 0.161-1.18 0.248-1.879 0.262c-1.036 0.028-2.002-0.175-2.898-0.609 c-0.896-0.434-1.673-1.019-2.331-1.753c-0.658-0.735-1.173-1.592-1.543-2.573C0.186 10 0 9 0 7.9 c0-1.05 0.179-2.047 0.536-2.993C0.893 4 1.4 3.1 2 2.396c0.644-0.728 1.417-1.309 2.32-1.743 c0.903-0.434 1.9-0.651 2.993-0.651c0.826-0.014 1.6 0.1 2.3 0.263c0.686 0.2 1.3 0.5 1.8 0.8 c0.497 0.3 0.9 0.8 1.2 1.229c0.273 0.5 0.4 1 0.4 1.554c0 0.28-0.049 0.56-0.147 0.8 c-0.098 0.28-0.249 0.536-0.452 0.767s-0.448 0.42-0.735 0.567c-0.287 0.147-0.62 0.22-0.998 0.22c-0.462 0-0.854-0.073-1.176-0.22 C9.128 5.9 9 5.7 9 5.482c0.042-0.336 0.052-0.675 0.031-1.019C9.02 4.1 8.9 3.8 8.8 3.5 C8.711 3.3 8.5 3.1 8.3 2.899S7.805 2.6 7.5 2.647c-0.476 0-0.893 0.182-1.25 0.5 C5.849 3.6 5.6 4 5.3 4.559S4.935 5.7 4.9 6.323C4.767 7 4.8 7.5 4.8 8.1 c0.14 1.2 0.5 2.2 1 2.867c0.511 0.7 1.1 1.2 1.8 1.491c0.679 0.3 1.4 0.4 2.2 0.3 s1.48-0.315 2.153-0.693c-0.182-0.546-0.273-1.141-0.273-1.785c0-0.784 0.147-1.522 0.441-2.215 c0.294-0.693 0.703-1.298 1.229-1.817c0.525-0.518 1.147-0.927 1.869-1.228c0.721-0.301 1.501-0.452 2.342-0.452 c0.84 0 1.6 0.1 2.3 0.452C20.577 5.3 21.2 5.7 21.7 6.217c0.525 0.5 0.9 1.1 1.2 1.8 C23.247 8.7 23.4 9.5 23.4 10.25z M15.771 10.25c0 0.4 0 0.9 0.1 1.271c0.07 0.4 0.2 0.8 0.3 1.1 c0.14 0.3 0.3 0.6 0.5 0.735c0.217 0.2 0.5 0.3 0.8 0.273c0.308 0 0.574-0.087 0.798-0.262 c0.224-0.175 0.406-0.413 0.546-0.714c0.14-0.301 0.242-0.654 0.305-1.06c0.063-0.406 0.094-0.84 0.094-1.302 c0-0.448-0.035-0.875-0.105-1.281c-0.07-0.406-0.175-0.759-0.315-1.061s-0.318-0.542-0.535-0.725 c-0.217-0.182-0.48-0.273-0.788-0.273c-0.308 0-0.574 0.091-0.798 0.273c-0.224 0.182-0.406 0.423-0.546 0.7 s-0.241 0.654-0.304 1.061C15.803 9.4 15.8 9.8 15.8 10.25z" class="style0"/><path d="M35.343 11.236c0 0.8 0.1 1.4 0.2 1.827c0.133 0.4 0.3 0.6 0.4 0.8 c0.147 0.2 0.3 0.3 0.4 0.294c0.105 0 0.1 0.1 0.1 0.263c-0.056 0.168-0.161 0.339-0.315 0.5 c-0.154 0.175-0.347 0.336-0.578 0.483c-0.231 0.147-0.487 0.266-0.767 0.357c-0.28 0.091-0.567 0.136-0.861 0.1 c-0.728 0-1.348-0.21-1.858-0.63c-0.511-0.42-0.844-1.008-0.998-1.764c-0.364 0.7-0.823 1.274-1.375 1.7 c-0.553 0.448-1.201 0.672-1.942 0.672c-0.658 0-1.243-0.168-1.754-0.504s-0.941-0.773-1.292-1.312 c-0.35-0.539-0.616-1.151-0.798-1.837c-0.182-0.686-0.273-1.379-0.273-2.079c0-0.714 0.091-1.414 0.273-2.1 c0.182-0.686 0.448-1.295 0.798-1.827c0.35-0.532 0.788-0.958 1.312-1.281c0.525-0.322 1.138-0.483 1.838-0.483 c0.728 0 1.4 0.2 1.9 0.557s0.938 0.8 1.3 1.438V0.484c0-0.028 0.014-0.056 0.042-0.084 c0.014-0.014 0.035-0.021 0.063-0.021h4.2C35.273 0.4 35.3 0.4 35.3 0.4c0.028 0 0 0 0 0.063V11.236z M29.505 13.021c0.252 0 0.476-0.073 0.672-0.221c0.196-0.147 0.36-0.35 0.493-0.609c0.133-0.259 0.234-0.56 0.305-0.903 c0.07-0.343 0.105-0.71 0.105-1.103c0-0.392-0.035-0.763-0.105-1.113c-0.07-0.35-0.172-0.654-0.305-0.914 c-0.133-0.259-0.297-0.462-0.493-0.609c-0.196-0.147-0.42-0.22-0.672-0.22s-0.479 0.073-0.683 0.2 c-0.203 0.147-0.371 0.351-0.504 0.609c-0.133 0.259-0.234 0.563-0.304 0.914c-0.07 0.35-0.105 0.721-0.105 1.1 c0 0.4 0 0.8 0.1 1.103c0.07 0.3 0.2 0.6 0.3 0.903c0.133 0.3 0.3 0.5 0.5 0.6 C29.025 12.9 29.3 13 29.5 13.021z" class="style0"/><path d="M47.061 12.224c0.098 0.1 0.1 0.2 0.1 0.336c-0.056 0.224-0.207 0.525-0.451 0.9 c-0.245 0.378-0.582 0.749-1.008 1.113c-0.427 0.364-0.938 0.679-1.533 0.945c-0.595 0.266-1.278 0.399-2.048 0.4 c-0.798 0-1.543-0.15-2.236-0.452c-0.693-0.301-1.295-0.71-1.806-1.228s-0.917-1.124-1.218-1.817 c-0.301-0.693-0.452-1.438-0.452-2.236c0-0.77 0.144-1.498 0.431-2.184c0.287-0.686 0.689-1.292 1.208-1.816 c0.518-0.525 1.145-0.941 1.879-1.25c0.735-0.308 1.557-0.462 2.467-0.462c0.854 0 1.6 0.1 2.2 0.4 c0.623 0.2 1.1 0.5 1.5 0.903c0.406 0.4 0.7 0.8 0.9 1.187c0.189 0.4 0.3 0.8 0.3 1.2 c0 0.826-0.213 1.48-0.641 1.963c-0.427 0.483-0.966 0.837-1.617 1.061c-0.651 0.224-1.365 0.343-2.142 0.4 c-0.777 0.014-1.509-0.035-2.194-0.147c0.182 0.5 0.5 0.9 0.9 1.229c0.42 0.3 0.9 0.5 1.5 0.5 c0.553 0.1 1.2 0 1.795-0.115s1.288-0.402 1.932-0.767C46.886 12.2 47 12.2 47.1 12.224z M41.622 7.1 c-0.35 0.21-0.609 0.542-0.777 0.998s-0.273 0.941-0.315 1.459c0.938 0.1 1.638-0.028 2.1-0.336 c0.462-0.308 0.693-0.749 0.693-1.323c0-0.28-0.105-0.525-0.315-0.735S42.532 6.8 42.2 6.848l-0.021 0.021h-0.063 C41.958 6.9 41.8 7 41.6 7.058z" class="style0"/><path d="M55.986 4.454c0.658 0 1.2 0.2 1.8 0.504s0.938 0.8 1.3 1.3 c0.343 0.5 0.6 1.2 0.8 1.837c0.182 0.7 0.3 1.4 0.3 2.079c0 0.714-0.091 1.414-0.273 2.1 c-0.182 0.686-0.448 1.295-0.798 1.827c-0.35 0.532-0.787 0.959-1.312 1.281c-0.525 0.322-1.13 0.483-1.816 0.5 c-0.728 0-1.351-0.186-1.869-0.557c-0.519-0.371-0.938-0.85-1.26-1.438v6.09c0 0.028-0.021 0.063-0.063 0.1 c-0.014 0.014-0.028 0.021-0.042 0.021h-4.2c-0.014 0-0.028-0.007-0.042-0.021c-0.042-0.042-0.056-0.07-0.042-0.084 c-0.014-1.778-0.021-3.409-0.021-4.893V9.137c0-0.56-0.031-1.012-0.094-1.354c-0.063-0.343-0.14-0.62-0.231-0.83 c-0.091-0.21-0.186-0.36-0.284-0.452c-0.098-0.091-0.186-0.165-0.262-0.221c-0.077-0.056-0.137-0.101-0.179-0.136 c-0.042-0.035-0.049-0.102-0.021-0.2c0.056-0.168 0.165-0.339 0.326-0.514c0.161-0.175 0.357-0.336 0.588-0.483 c0.231-0.147 0.486-0.266 0.767-0.357c0.28-0.091 0.567-0.136 0.861-0.136c0.728 0 1.3 0.2 1.9 0.6 c0.511 0.4 0.8 1 1 1.764c0.364-0.7 0.822-1.274 1.375-1.722C54.596 4.7 55.2 4.5 56 4.454z M54.201 13 c0.252 0 0.476-0.073 0.672-0.221c0.196-0.147 0.36-0.35 0.494-0.609c0.133-0.259 0.234-0.563 0.304-0.914 c0.07-0.35 0.105-0.721 0.105-1.113c0-0.392-0.035-0.759-0.105-1.103c-0.07-0.343-0.171-0.644-0.304-0.903 c-0.133-0.259-0.298-0.462-0.494-0.609c-0.196-0.147-0.42-0.22-0.672-0.22s-0.476 0.073-0.672 0.2 c-0.196 0.147-0.36 0.351-0.493 0.609c-0.133 0.259-0.235 0.56-0.305 0.903c-0.07 0.343-0.105 0.711-0.105 1.1 c0 0.4 0 0.8 0.1 1.113c0.07 0.3 0.2 0.7 0.3 0.914c0.133 0.3 0.3 0.5 0.5 0.6 C53.725 13 53.9 13 54.2 13.042z" class="style0"/><path d="M71.631 11.257c0 0.6 0 1 0.1 1.354c0.07 0.3 0.2 0.6 0.3 0.83s0.213 0.4 0.3 0.5 c0.112 0.1 0.2 0.2 0.3 0.22c0.091 0.1 0.2 0.1 0.2 0.137c0.049 0 0.1 0.1 0 0.2 c-0.056 0.168-0.165 0.339-0.326 0.514c-0.161 0.175-0.357 0.336-0.588 0.483c-0.231 0.147-0.486 0.266-0.767 0.4 c-0.28 0.091-0.567 0.136-0.861 0.136c-0.728 0-1.348-0.213-1.858-0.641c-0.511-0.427-0.844-1.018-0.998-1.774 c-0.448 0.896-0.987 1.522-1.617 1.879c-0.63 0.357-1.225 0.536-1.785 0.536c-0.392 0-0.763-0.081-1.113-0.241 c-0.35-0.161-0.654-0.396-0.914-0.704s-0.465-0.672-0.619-1.092c-0.154-0.42-0.231-0.896-0.231-1.428V9.2 c0-0.56-0.039-1.011-0.116-1.354c-0.077-0.343-0.175-0.62-0.294-0.83c-0.119-0.21-0.242-0.36-0.368-0.452 c-0.126-0.091-0.241-0.165-0.346-0.22c-0.105-0.056-0.186-0.102-0.242-0.137c-0.056-0.035-0.07-0.102-0.042-0.2 c0.056-0.168 0.165-0.339 0.326-0.514c0.161-0.175 0.357-0.336 0.588-0.483c0.231-0.147 0.486-0.266 0.767-0.357 c0.28-0.091 0.567-0.136 0.861-0.136c0.42 0 0.8 0.1 1.2 0.22c0.378 0.1 0.7 0.4 1 0.63s0.511 0.6 0.7 1 c0.161 0.4 0.2 0.8 0.2 1.333v4.074c0 0.5 0.1 0.9 0.3 1.05c0.196 0.2 0.4 0.2 0.7 0.1 c0.245-0.105 0.469-0.339 0.672-0.704c0.203-0.364 0.318-0.84 0.347-1.428V5.042c0-0.042 0.014-0.077 0.042-0.105 c0.014-0.014 0.028-0.021 0.042-0.021h4.221c0.014 0 0 0 0 0.021c0.028 0 0 0.1 0 0.1 c-0.028 0.91-0.056 1.771-0.084 2.583c-0.028 0.7-0.049 1.393-0.063 2.079C71.638 10.4 71.6 10.9 71.6 11.257z" class="style0"/><path d="M81.417 4.454c0.658 0 1.2 0.2 1.8 0.504s0.938 0.8 1.3 1.3 c0.343 0.5 0.6 1.2 0.8 1.837c0.182 0.7 0.3 1.4 0.3 2.079c0 0.714-0.091 1.414-0.273 2.1 c-0.182 0.686-0.448 1.295-0.798 1.827c-0.35 0.532-0.787 0.959-1.312 1.281c-0.525 0.322-1.13 0.483-1.816 0.5 c-0.728 0-1.351-0.186-1.869-0.557c-0.519-0.371-0.938-0.85-1.26-1.438v6.09c0 0.028-0.021 0.063-0.063 0.1 c-0.014 0.014-0.028 0.021-0.042 0.021h-4.2c-0.014 0-0.028-0.007-0.042-0.021c-0.042-0.042-0.056-0.07-0.042-0.084 c-0.014-1.778-0.021-3.409-0.021-4.893V9.137c0-0.56-0.031-1.012-0.094-1.354c-0.063-0.343-0.14-0.62-0.231-0.83 c-0.091-0.21-0.186-0.36-0.284-0.452c-0.098-0.091-0.186-0.165-0.262-0.221c-0.077-0.056-0.137-0.101-0.179-0.136 c-0.042-0.035-0.049-0.102-0.021-0.2c0.056-0.168 0.165-0.339 0.326-0.514c0.161-0.175 0.357-0.336 0.588-0.483 c0.231-0.147 0.486-0.266 0.767-0.357c0.28-0.091 0.567-0.136 0.861-0.136c0.728 0 1.3 0.2 1.9 0.6 c0.511 0.4 0.8 1 1 1.764c0.364-0.7 0.822-1.274 1.375-1.722C80.027 4.7 80.7 4.5 81.4 4.454z M79.632 13 c0.252 0 0.476-0.073 0.672-0.221c0.196-0.147 0.36-0.35 0.494-0.609c0.133-0.259 0.234-0.563 0.304-0.914 c0.07-0.35 0.105-0.721 0.105-1.113c0-0.392-0.035-0.759-0.105-1.103c-0.07-0.343-0.171-0.644-0.304-0.903 c-0.133-0.259-0.298-0.462-0.494-0.609c-0.196-0.147-0.42-0.22-0.672-0.22s-0.476 0.073-0.672 0.2 c-0.196 0.147-0.36 0.351-0.493 0.609c-0.133 0.259-0.235 0.56-0.305 0.903c-0.07 0.343-0.105 0.711-0.105 1.1 c0 0.4 0 0.8 0.1 1.113c0.07 0.3 0.2 0.7 0.3 0.914c0.133 0.3 0.3 0.5 0.5 0.6 C79.156 13 79.4 13 79.6 13.042z" class="style0"/><path d="M94.206 4.454c0.658 0 1.2 0.2 1.8 0.504s0.938 0.8 1.3 1.3 c0.343 0.5 0.6 1.2 0.8 1.837c0.182 0.7 0.3 1.4 0.3 2.079c0 0.714-0.091 1.414-0.273 2.1 c-0.182 0.686-0.448 1.295-0.798 1.827c-0.35 0.532-0.787 0.959-1.312 1.281c-0.525 0.322-1.13 0.483-1.816 0.5 c-0.728 0-1.351-0.186-1.869-0.557c-0.519-0.371-0.938-0.85-1.26-1.438v6.09c0 0.028-0.021 0.063-0.063 0.1 c-0.014 0.014-0.028 0.021-0.042 0.021h-4.2c-0.014 0-0.028-0.007-0.042-0.021c-0.042-0.042-0.056-0.07-0.042-0.084 c-0.014-1.778-0.021-3.409-0.021-4.893V9.137c0-0.56-0.031-1.012-0.094-1.354c-0.063-0.343-0.14-0.62-0.231-0.83 c-0.091-0.21-0.186-0.36-0.284-0.452c-0.098-0.091-0.186-0.165-0.262-0.221c-0.077-0.056-0.137-0.101-0.179-0.136 c-0.042-0.035-0.049-0.102-0.021-0.2c0.056-0.168 0.165-0.339 0.326-0.514c0.161-0.175 0.357-0.336 0.588-0.483 c0.231-0.147 0.486-0.266 0.767-0.357c0.28-0.091 0.567-0.136 0.861-0.136c0.728 0 1.3 0.2 1.9 0.6 c0.511 0.4 0.8 1 1 1.764c0.364-0.7 0.822-1.274 1.375-1.722C92.816 4.7 93.5 4.5 94.2 4.454z M92.421 13 c0.252 0 0.476-0.073 0.672-0.221c0.196-0.147 0.36-0.35 0.494-0.609c0.133-0.259 0.234-0.563 0.304-0.914 c0.07-0.35 0.105-0.721 0.105-1.113c0-0.392-0.035-0.759-0.105-1.103c-0.07-0.343-0.171-0.644-0.304-0.903 c-0.133-0.259-0.298-0.462-0.494-0.609c-0.196-0.147-0.42-0.22-0.672-0.22s-0.476 0.073-0.672 0.2 c-0.196 0.147-0.36 0.351-0.493 0.609c-0.133 0.259-0.235 0.56-0.305 0.903c-0.07 0.343-0.105 0.711-0.105 1.1 c0 0.4 0 0.8 0.1 1.113c0.07 0.3 0.2 0.7 0.3 0.914c0.133 0.3 0.3 0.5 0.5 0.6 C91.945 13 92.2 13 92.4 13.042z" class="style0"/><path d="M110.355 13.987c0.028 0.911-0.074 1.747-0.305 2.51c-0.231 0.763-0.592 1.421-1.082 2 c-0.49 0.553-1.106 0.983-1.848 1.292c-0.742 0.308-1.596 0.462-2.562 0.462c-0.77 0-1.435-0.112-1.995-0.336 c-0.561-0.224-1.033-0.49-1.417-0.798c-0.385-0.308-0.687-0.623-0.903-0.945c-0.217-0.322-0.354-0.581-0.409-0.777 c-0.084-0.252-0.137-0.459-0.158-0.62c-0.021-0.161-0.021-0.284 0-0.368s0.056-0.14 0.105-0.168 c0.049-0.028 0.102-0.035 0.158-0.021c0.126 0 0.3 0.1 0.4 0.305c0.154 0.2 0.4 0.4 0.6 0.6 c0.259 0.2 0.6 0.4 1 0.557c0.385 0.2 0.9 0.3 1.5 0.252c0.42 0 0.794-0.067 1.124-0.2 c0.329-0.133 0.609-0.308 0.84-0.525c0.231-0.217 0.41-0.469 0.536-0.756c0.126-0.287 0.196-0.592 0.21-0.914v-2.1 c-0.21 0.448-0.455 0.83-0.735 1.145c-0.28 0.315-0.571 0.567-0.872 0.756c-0.301 0.189-0.606 0.326-0.914 0.4 c-0.308 0.084-0.602 0.126-0.882 0.126c-0.392 0-0.763-0.081-1.113-0.241c-0.35-0.161-0.654-0.396-0.914-0.704 s-0.465-0.672-0.619-1.092c-0.154-0.42-0.231-0.896-0.231-1.428V9.2c0-0.56-0.039-1.011-0.116-1.354 c-0.077-0.343-0.175-0.62-0.294-0.83c-0.119-0.21-0.242-0.36-0.368-0.452c-0.126-0.091-0.241-0.165-0.346-0.22 c-0.105-0.056-0.186-0.102-0.242-0.137c-0.056-0.035-0.07-0.102-0.042-0.2c0.056-0.168 0.165-0.339 0.326-0.514 c0.161-0.175 0.357-0.336 0.588-0.483c0.231-0.147 0.486-0.266 0.767-0.357c0.28-0.091 0.567-0.136 0.861-0.136 c0.42 0 0.8 0.1 1.2 0.22c0.378 0.1 0.7 0.4 1 0.63c0.28 0.3 0.5 0.6 0.7 1 c0.161 0.4 0.2 0.8 0.2 1.333v3.948c0 0.5 0.1 0.9 0.3 1.071c0.203 0.2 0.4 0.2 0.7 0.1 c0.252-0.119 0.483-0.371 0.693-0.756c0.21-0.385 0.322-0.885 0.336-1.501V5.042c0-0.028 0.014-0.056 0.042-0.084 c0.014-0.014 0.028-0.021 0.042-0.021h4.053c0.014 0 0 0 0 0.021c0.028 0 0 0.1 0 0.1 c0 1.2 0 2.3 0 3.423c0 0.5 0 1 0 1.47c0.007 0.5 0 1 0 1.5 c0.007 0.5 0 0.9 0 1.386C110.355 13.2 110.4 13.6 110.4 13.987z" class="style0"/></g></svg>